<?xml version="1.0" standalone="no"?>
<!DOCTYPE svg PUBLIC "-//W3C//DTD SVG 20010904//EN"
 "http://www.w3.org/TR/2001/REC-SVG-20010904/DTD/svg10.dtd">
<svg version="1.0" xmlns="http://www.w3.org/2000/svg"
 width="177.000000pt" height="137.000000pt" viewBox="0 0 177.000000 137.000000"
 preserveAspectRatio="xMidYMid meet">

<g transform="translate(0.000000,137.000000) scale(0.100000,-0.100000)"
fill="#000000" stroke="none">
<path d="M944 1263 c4 -10 124 -244 266 -521 143 -276 260 -505 260 -508 0 -2
-50 -3 -112 -2 l-112 3 -271 507 c-149 279 -273 509 -276 512 -4 4 -629 -1146
-629 -1158 0 -3 120 -6 268 -6 l267 0 70 127 c39 70 72 131 73 135 2 4 -34 8
-80 8 l-83 0 -35 -63 -36 -62 -102 -3 c-62 -2 -102 1 -102 7 0 6 30 66 67 136
l66 125 261 0 261 0 109 -205 109 -205 264 0 c144 0 263 3 263 8 -1 4 -137
270 -304 592 l-303 585 -83 3 c-76 3 -82 1 -76 -15z m-138 -478 l83 -150 -181
-3 c-100 -1 -183 -1 -185 2 -2 2 5 19 15 37 11 19 52 94 92 168 63 115 74 131
83 115 6 -11 48 -86 93 -169z"/>
</g>
</svg>
